<?xml version="1.0" standalone="no"?>
<!DOCTYPE svg PUBLIC "-//W3C//DTD SVG 20010904//EN"
 "http://www.w3.org/TR/2001/REC-SVG-20010904/DTD/svg10.dtd">
<svg version="1.0" xmlns="http://www.w3.org/2000/svg"
 width="105.000000pt" height="105.000000pt" viewBox="0 0 105.000000 105.000000"
 preserveAspectRatio="xMidYMid meet">
<metadata>
Created by potrace 1.14, written by Peter Selinger 2001-2017
</metadata>
<g transform="translate(0.000000,105.000000) scale(0.100000,-0.100000)"
fill="#000000" stroke="none">
<path d="M608 944 c-49 -21 -64 -64 -22 -64 18 0 18 -10 -1 -37 -10 -15 -28
-22 -60 -25 -41 -3 -46 -1 -61 28 -20 36 -14 60 18 74 18 8 12 9 -25 6 -67 -7
-145 -48 -187 -100 -14 -16 -19 -27 -13 -23 7 5 22 3 33 -3 15 -8 29 -6 59 10
22 11 48 21 58 23 10 1 23 6 28 9 6 4 16 -1 22 -11 9 -15 8 -18 -5 -18 -37 1
-102 -16 -113 -29 -6 -8 -29 -17 -51 -20 -22 -4 -37 -11 -35 -18 2 -6 -2 -24
-11 -40 -22 -44 -32 -86 -21 -86 6 0 20 -21 32 -47 32 -69 53 -97 68 -87 23
14 89 22 96 11 10 -16 88 92 96 134 6 36 8 -8 15 -349 2 -64 4 -73 20 -70 19
4 20 21 8 153 -4 44 -9 116 -10 160 -2 45 -7 91 -11 104 l-7 24 25 -19 c16
-12 22 -23 16 -29 -14 -14 -10 -98 6 -119 8 -10 12 -23 9 -27 -3 -5 5 -9 17
-9 12 0 42 -11 66 -26 l43 -25 26 20 c20 16 31 18 57 10 17 -5 33 -9 35 -9 2
0 2 28 1 63 -2 49 1 62 12 61 13 -1 14 10 7 69 -7 56 -6 73 5 85 12 12 11 17
-7 37 -11 12 -34 41 -50 63 -19 27 -35 39 -47 37 -37 -7 -29 15 13 34 34 15
39 21 26 26 -10 4 -18 13 -18 21 0 8 -6 14 -14 14 -8 0 -16 5 -18 11 -6 18
-90 21 -130 3z m36 -49 c-4 -8 -11 -12 -16 -9 -6 4 -5 10 3 15 19 12 19 11 13
-6z m53 -59 c3 -3 -12 -6 -35 -6 -23 0 -42 -2 -42 -4 0 -2 -2 -11 -5 -18 -3
-8 4 -25 15 -38 11 -13 18 -26 14 -29 -3 -3 -10 2 -16 13 -5 10 -21 27 -34 39
-22 19 -23 22 -7 39 12 14 27 17 60 15 24 -3 46 -7 50 -11z m-102 -206 c3 -6
-1 -7 -9 -4 -18 7 -21 14 -7 14 6 0 13 -4 16 -10z"/>
<path d="M3 352 c-6 -14 15 -34 28 -27 4 3 7 -17 7 -43 0 -70 0 -72 22 -72 18
0 20 7 20 60 0 52 2 60 17 58 12 -2 18 4 18 17 0 17 -7 20 -53 21 -38 0 -56
-3 -59 -14z"/>
<path d="M143 362 c-6 -4 -10 -36 -9 -77 1 -63 3 -70 22 -73 19 -3 21 1 19 29
l-3 33 19 -25 c10 -13 19 -27 19 -31 0 -9 50 -11 50 -3 0 3 -7 17 -16 31 -13
19 -14 28 -5 37 16 16 14 52 -4 67 -17 14 -76 22 -92 12z m58 -47 c1 -17 -18
-17 -25 0 -4 11 -1 15 10 13 8 -2 15 -7 15 -13z"/>
<path d="M280 288 l0 -78 50 0 c43 0 50 3 50 20 0 16 -7 20 -30 20 -16 0 -30
5 -30 10 0 6 12 10 26 10 19 0 25 4 22 17 -2 10 -12 18 -22 18 -11 0 -21 6
-23 12 -3 9 5 12 26 9 26 -3 31 0 31 18 0 19 -6 21 -50 21 l-50 1 0 -78z"/>
<path d="M405 360 c-2 -4 -4 -39 -4 -78 l0 -72 54 0 c45 0 53 3 51 18 -2 11
-13 18 -35 20 -33 3 -34 22 0 22 10 0 19 5 19 10 0 6 0 13 0 18 0 4 -9 7 -19
7 -32 0 -35 14 -5 21 39 9 44 13 38 27 -4 13 -92 19 -99 7z"/>
<path d="M798 293 c-34 -72 -41 -108 -15 -73 15 20 78 20 101 1 9 -8 18 -12
20 -10 2 2 -13 39 -33 82 l-37 78 -36 -78z m60 -15 c11 -27 11 -28 -23 -28
-33 0 -34 1 -24 26 20 53 25 53 47 2z"/>
<path d="M1037 363 c-4 -3 -7 -29 -7 -57 l-1 -51 -48 53 c-27 28 -51 52 -53
52 -2 0 -4 -32 -3 -70 0 -39 5 -70 10 -70 6 0 9 24 8 53 l-3 52 55 -59 55 -60
0 82 c0 82 -1 88 -13 75z"/>
<path d="M590 288 c0 -46 4 -78 10 -78 6 0 10 20 10 44 0 24 2 50 5 58 3 7 -1
22 -9 33 -14 18 -15 13 -16 -57z"/>
<path d="M701 305 c-17 -30 -33 -55 -36 -55 -2 0 -12 15 -21 33 -10 17 -19 27
-21 21 -4 -12 35 -84 45 -84 4 0 16 18 26 40 23 48 34 44 30 -10 -1 -22 2 -40
7 -40 5 0 10 6 10 13 3 29 0 130 -4 134 -3 2 -19 -21 -36 -52z"/>
<path d="M253 149 c-17 -17 -4 -39 21 -38 17 1 18 2 3 6 -19 5 -17 30 2 26 6
-2 11 2 11 7 0 13 -23 13 -37 -1z"/>
<path d="M337 154 c-4 -4 -7 -16 -7 -26 0 -13 7 -18 26 -18 21 0 25 4 22 22
-3 23 -27 35 -41 22z m30 -30 c-9 -9 -28 6 -21 18 4 6 10 6 17 -1 6 -6 8 -13
4 -17z"/>
<path d="M460 145 c-10 -13 -15 -13 -21 -3 -10 17 -23 3 -16 -17 10 -23 52
-13 53 13 1 26 0 27 -16 7z"/>
<path d="M520 135 c0 -29 3 -30 24 -9 18 17 13 34 -10 34 -8 0 -14 -10 -14
-25z"/>
<path d="M600 141 c-14 -28 -13 -31 16 -31 14 0 23 4 19 10 -4 6 -10 8 -15 5
-4 -3 -6 4 -3 15 7 25 -3 26 -17 1z"/>
<path d="M681 134 c0 -16 3 -23 6 -16 4 10 8 10 19 1 11 -9 14 -6 13 17 0 16
-3 23 -6 16 -4 -10 -8 -10 -19 -1 -11 9 -14 6 -13 -17z"/>
<path d="M770 139 c0 -10 5 -21 10 -24 6 -3 10 -2 10 4 0 5 2 16 5 24 4 8 0
14 -10 14 -8 0 -15 -8 -15 -18z"/>
</g>
</svg>
